<?xml version="1.0" standalone="no"?><!DOCTYPE svg PUBLIC "-//W3C//DTD SVG 1.1//EN" "http://www.w3.org/Graphics/SVG/1.1/DTD/svg11.dtd"><svg xmlns:xlink="http://www.w3.org/1999/xlink" version="1.1" class="highcharts-root" style="font-family:Signika, serif;font-size:12px;" xmlns="http://www.w3.org/2000/svg" width="600" height="400" viewBox="0 0 600 400" aria-label="Interactive chart" aria-hidden="false"><desc aria-hidden="true">Created with Highcharts 9.1.2</desc><defs aria-hidden="true"><clipPath id="highcharts-vq4jiw9-24-"><rect x="0" y="0" width="580" height="340" fill="none"></rect></clipPath></defs><rect fill="none" class="highcharts-background" x="0" y="0" width="600" height="400" rx="0" ry="0" aria-hidden="true"></rect><rect fill="none" class="highcharts-plot-background" x="10" y="45" width="580" height="340" aria-hidden="true"></rect><rect fill="none" class="highcharts-plot-border" data-z-index="1" x="10" y="45" width="580" height="340" aria-hidden="true"></rect><g class="highcharts-series-group" data-z-index="3" aria-hidden="false"><g class="highcharts-series highcharts-series-0 highcharts-pie-series" data-z-index="0.1" opacity="1" transform="translate(10,45) scale(1 1)" aria-hidden="false" aria-label=""><g class="highcharts-shadow" data-z-index="-1"><g class="highcharts-shadow" transform="translate(9,4)"><path fill="none" d="M 300.9710784050753 41.500002945276975 A 142 142 0 1 1 207.7733325602199 290.6111034303757 L 301 183.5 A 0 0 0 1 0 301 183.5 Z" transform="translate(1, 1)" stroke="#000000" stroke-width="5" opacity="1" stroke-linejoin="round" stroke-opacity="0.049999999999999996" class=" highcharts-shadow"></path><path fill="none" d="M 300.9710784050753 41.500002945276975 A 142 142 0 1 1 207.7733325602199 290.6111034303757 L 301 183.5 A 0 0 0 1 0 301 183.5 Z" transform="translate(1, 1)" stroke="#000000" stroke-width="3" opacity="1" stroke-linejoin="round" stroke-opacity="0.09999999999999999" class=" highcharts-shadow"></path><path fill="none" d="M 300.9710784050753 41.500002945276975 A 142 142 0 1 1 207.7733325602199 290.6111034303757 L 301 183.5 A 0 0 0 1 0 301 183.5 Z" transform="translate(1, 1)" stroke="#000000" stroke-width="1" opacity="1" stroke-linejoin="round" stroke-opacity="0.15" class=" highcharts-shadow"></path></g><g class="highcharts-shadow" transform="translate(0,0)"><path fill="none" d="M 207.66626808797122 290.5178232229265 A 142 142 0 0 1 159.86749746838117 199.17216415057615 L 301 183.5 A 0 0 0 0 0 301 183.5 Z" transform="translate(1, 1)" stroke="#000000" stroke-width="5" opacity="1" stroke-linejoin="round" stroke-opacity="0.049999999999999996" class=" highcharts-shadow"></path><path fill="none" d="M 207.66626808797122 290.5178232229265 A 142 142 0 0 1 159.86749746838117 199.17216415057615 L 301 183.5 A 0 0 0 0 0 301 183.5 Z" transform="translate(1, 1)" stroke="#000000" stroke-width="3" opacity="1" stroke-linejoin="round" stroke-opacity="0.09999999999999999" class=" highcharts-shadow"></path><path fill="none" d="M 207.66626808797122 290.5178232229265 A 142 142 0 0 1 159.86749746838117 199.17216415057615 L 301 183.5 A 0 0 0 0 0 301 183.5 Z" transform="translate(1, 1)" stroke="#000000" stroke-width="1" opacity="1" stroke-linejoin="round" stroke-opacity="0.15" class=" highcharts-shadow"></path></g><g class="highcharts-shadow" transform="translate(0,0)"><path fill="none" d="M 159.851895873088 199.0310238354852 A 142 142 0 0 1 181.48128548388033 106.823557200309 L 301 183.5 A 0 0 0 0 0 301 183.5 Z" transform="translate(1, 1)" stroke="#000000" stroke-width="5" opacity="1" stroke-linejoin="round" stroke-opacity="0.049999999999999996" class=" highcharts-shadow"></path><path fill="none" d="M 159.851895873088 199.0310238354852 A 142 142 0 0 1 181.48128548388033 106.823557200309 L 301 183.5 A 0 0 0 0 0 301 183.5 Z" transform="translate(1, 1)" stroke="#000000" stroke-width="3" opacity="1" stroke-linejoin="round" stroke-opacity="0.09999999999999999" class=" highcharts-shadow"></path><path fill="none" d="M 159.851895873088 199.0310238354852 A 142 142 0 0 1 181.48128548388033 106.823557200309 L 301 183.5 A 0 0 0 0 0 301 183.5 Z" transform="translate(1, 1)" stroke="#000000" stroke-width="1" opacity="1" stroke-linejoin="round" stroke-opacity="0.15" class=" highcharts-shadow"></path></g><g class="highcharts-shadow" transform="translate(0,0)"><path fill="none" d="M 181.55802167325288 106.70407684393089 A 142 142 0 0 1 208.82906840268478 75.47907902409348 L 301 183.5 A 0 0 0 0 0 301 183.5 Z" transform="translate(1, 1)" stroke="#000000" stroke-width="5" opacity="1" stroke-linejoin="round" stroke-opacity="0.049999999999999996" class=" highcharts-shadow"></path><path fill="none" d="M 181.55802167325288 106.70407684393089 A 142 142 0 0 1 208.82906840268478 75.47907902409348 L 301 183.5 A 0 0 0 0 0 301 183.5 Z" transform="translate(1, 1)" stroke="#000000" stroke-width="3" opacity="1" stroke-linejoin="round" stroke-opacity="0.09999999999999999" class=" highcharts-shadow"></path><path fill="none" d="M 181.55802167325288 106.70407684393089 A 142 142 0 0 1 208.82906840268478 75.47907902409348 L 301 183.5 A 0 0 0 0 0 301 183.5 Z" transform="translate(1, 1)" stroke="#000000" stroke-width="1" opacity="1" stroke-linejoin="round" stroke-opacity="0.15" class=" highcharts-shadow"></path></g><g class="highcharts-shadow" transform="translate(0,0)"><path fill="none" d="M 208.9371353911192 75.38696211831393 A 142 142 0 0 1 239.95330722341612 55.29196085642141 L 301 183.5 A 0 0 0 0 0 301 183.5 Z" transform="translate(1, 1)" stroke="#000000" stroke-width="5" opacity="1" stroke-linejoin="round" stroke-opacity="0.049999999999999996" class=" highcharts-shadow"></path><path fill="none" d="M 208.9371353911192 75.38696211831393 A 142 142 0 0 1 239.95330722341612 55.29196085642141 L 301 183.5 A 0 0 0 0 0 301 183.5 Z" transform="translate(1, 1)" stroke="#000000" stroke-width="3" opacity="1" stroke-linejoin="round" stroke-opacity="0.09999999999999999" class=" highcharts-shadow"></path><path fill="none" d="M 208.9371353911192 75.38696211831393 A 142 142 0 0 1 239.95330722341612 55.29196085642141 L 301 183.5 A 0 0 0 0 0 301 183.5 Z" transform="translate(1, 1)" stroke="#000000" stroke-width="1" opacity="1" stroke-linejoin="round" stroke-opacity="0.15" class=" highcharts-shadow"></path></g><g class="highcharts-shadow" transform="translate(0,0)"><path fill="none" d="M 240.08154576453558 55.230978277833486 A 142 142 0 0 1 253.45893423736015 49.694742008572945 L 301 183.5 A 0 0 0 0 0 301 183.5 Z" transform="translate(1, 1)" stroke="#000000" stroke-width="5" opacity="1" stroke-linejoin="round" stroke-opacity="0.049999999999999996" class=" highcharts-shadow"></path><path fill="none" d="M 240.08154576453558 55.230978277833486 A 142 142 0 0 1 253.45893423736015 49.694742008572945 L 301 183.5 A 0 0 0 0 0 301 183.5 Z" transform="translate(1, 1)" stroke="#000000" stroke-width="3" opacity="1" stroke-linejoin="round" stroke-opacity="0.09999999999999999" class=" highcharts-shadow"></path><path fill="none" d="M 240.08154576453558 55.230978277833486 A 142 142 0 0 1 253.45893423736015 49.694742008572945 L 301 183.5 A 0 0 0 0 0 301 183.5 Z" transform="translate(1, 1)" stroke="#000000" stroke-width="1" opacity="1" stroke-linejoin="round" stroke-opacity="0.15" class=" highcharts-shadow"></path></g><g class="highcharts-shadow" transform="translate(0,0)"><path fill="none" d="M 253.59276324358166 49.64726785335722 A 142 142 0 0 1 267.19257754075426 45.583147561068216 L 301 183.5 A 0 0 0 0 0 301 183.5 Z" transform="translate(1, 1)" stroke="#000000" stroke-width="5" opacity="1" stroke-linejoin="round" stroke-opacity="0.049999999999999996" class=" highcharts-shadow"></path><path fill="none" d="M 253.59276324358166 49.64726785335722 A 142 142 0 0 1 267.19257754075426 45.583147561068216 L 301 183.5 A 0 0 0 0 0 301 183.5 Z" transform="translate(1, 1)" stroke="#000000" stroke-width="3" opacity="1" stroke-linejoin="round" stroke-opacity="0.09999999999999999" class=" highcharts-shadow"></path><path fill="none" d="M 253.59276324358166 49.64726785335722 A 142 142 0 0 1 267.19257754075426 45.583147561068216 L 301 183.5 A 0 0 0 0 0 301 183.5 Z" transform="translate(1, 1)" stroke="#000000" stroke-width="1" opacity="1" stroke-linejoin="round" stroke-opacity="0.15" class=" highcharts-shadow"></path></g><g class="highcharts-shadow" transform="translate(0,0)"><path fill="none" d="M 267.3305112739169 45.54940910266399 A 142 142 0 0 1 277.6216857356718 43.43767665014866 L 301 183.5 A 0 0 0 0 0 301 183.5 Z" transform="translate(1, 1)" stroke="#000000" stroke-width="5" opacity="1" stroke-linejoin="round" stroke-opacity="0.049999999999999996" class=" highcharts-shadow"></path><path fill="none" d="M 267.3305112739169 45.54940910266399 A 142 142 0 0 1 277.6216857356718 43.43767665014866 L 301 183.5 A 0 0 0 0 0 301 183.5 Z" transform="translate(1, 1)" stroke="#000000" stroke-width="3" opacity="1" stroke-linejoin="round" stroke-opacity="0.09999999999999999" class=" highcharts-shadow"></path><path fill="none" d="M 267.3305112739169 45.54940910266399 A 142 142 0 0 1 277.6216857356718 43.43767665014866 L 301 183.5 A 0 0 0 0 0 301 183.5 Z" transform="translate(1, 1)" stroke="#000000" stroke-width="1" opacity="1" stroke-linejoin="round" stroke-opacity="0.15" class=" highcharts-shadow"></path></g><g class="highcharts-shadow" transform="translate(0,0)"><path fill="none" d="M 277.7617597248342 43.41436837093656 A 142 142 0 0 1 300.80276484879386 41.50013697790013 L 301 183.5 A 0 0 0 0 0 301 183.5 Z" transform="translate(1, 1)" stroke="#000000" stroke-width="5" opacity="1" stroke-linejoin="round" stroke-opacity="0.049999999999999996" class=" highcharts-shadow"></path><path fill="none" d="M 277.7617597248342 43.41436837093656 A 142 142 0 0 1 300.80276484879386 41.50013697790013 L 301 183.5 A 0 0 0 0 0 301 183.5 Z" transform="translate(1, 1)" stroke="#000000" stroke-width="3" opacity="1" stroke-linejoin="round" stroke-opacity="0.09999999999999999" class=" highcharts-shadow"></path><path fill="none" d="M 277.7617597248342 43.41436837093656 A 142 142 0 0 1 300.80276484879386 41.50013697790013 L 301 183.5 A 0 0 0 0 0 301 183.5 Z" transform="translate(1, 1)" stroke="#000000" stroke-width="1" opacity="1" stroke-linejoin="round" stroke-opacity="0.15" class=" highcharts-shadow"></path></g></g><path fill="#f45b5b" d="M 300.9710784050753 41.500002945276975 A 142 142 0 1 1 207.7733325602199 290.6111034303757 L 301 183.5 A 0 0 0 1 0 301 183.5 Z" transform="translate(9,4)" stroke="#ffffff" stroke-width="1" opacity="1" stroke-linejoin="round" class="highcharts-point highcharts-point-select highcharts-color-0" tabindex="-1" role="img" aria-label="1. Chrome, 61.41%." style="outline: 0px;"></path><path fill="#8085e9" d="M 207.66626808797122 290.5178232229265 A 142 142 0 0 1 159.86749746838117 199.17216415057615 L 301 183.5 A 0 0 0 0 0 301 183.5 Z" transform="translate(0,0)" stroke="#ffffff" stroke-width="1" opacity="1" stroke-linejoin="round" class="highcharts-point highcharts-color-1" tabindex="-1" role="img" aria-label="2. Internet Explorer, 11.84%." style="outline: 0px;"></path><path fill="#8d4654" d="M 159.851895873088 199.0310238354852 A 142 142 0 0 1 181.48128548388033 106.823557200309 L 301 183.5 A 0 0 0 0 0 301 183.5 Z" transform="translate(0,0)" stroke="#ffffff" stroke-width="1" opacity="1" stroke-linejoin="round" class="highcharts-point highcharts-color-2" tabindex="-1" role="img" aria-label="3. Firefox, 10.85%." style="outline: 0px;"></path><path fill="#7798BF" d="M 181.55802167325288 106.70407684393089 A 142 142 0 0 1 208.82906840268478 75.47907902409348 L 301 183.5 A 0 0 0 0 0 301 183.5 Z" transform="translate(0,0)" stroke="#ffffff" stroke-width="1" opacity="1" stroke-linejoin="round" class="highcharts-point highcharts-color-3" tabindex="-1" role="img" aria-label="4. Edge, 4.67%." style="outline: 0px;"></path><path fill="#aaeeee" d="M 208.9371353911192 75.38696211831393 A 142 142 0 0 1 239.95330722341612 55.29196085642141 L 301 183.5 A 0 0 0 0 0 301 183.5 Z" transform="translate(0,0)" stroke="#ffffff" stroke-width="1" opacity="1" stroke-linejoin="round" class="highcharts-point highcharts-color-4" tabindex="-1" role="img" aria-label="5. Safari, 4.18%." style="outline: 0px;"></path><path fill="#ff0066" d="M 240.08154576453558 55.230978277833486 A 142 142 0 0 1 253.45893423736015 49.694742008572945 L 301 183.5 A 0 0 0 0 0 301 183.5 Z" transform="translate(0,0)" stroke="#ffffff" stroke-width="1" opacity="1" stroke-linejoin="round" class="highcharts-point highcharts-color-5" tabindex="-1" role="img" aria-label="6. Sogou Explorer, 1.64%." style="outline: 0px;"></path><path fill="#eeaaee" d="M 253.59276324358166 49.64726785335722 A 142 142 0 0 1 267.19257754075426 45.583147561068216 L 301 183.5 A 0 0 0 0 0 301 183.5 Z" transform="translate(0,0)" stroke="#ffffff" stroke-width="1" opacity="1" stroke-linejoin="round" class="highcharts-point highcharts-color-6" tabindex="-1" role="img" aria-label="7. Opera, 1.6%." style="outline: 0px;"></path><path fill="#55BF3B" d="M 267.3305112739169 45.54940910266399 A 142 142 0 0 1 277.6216857356718 43.43767665014866 L 301 183.5 A 0 0 0 0 0 301 183.5 Z" transform="translate(0,0)" stroke="#ffffff" stroke-width="1" opacity="1" stroke-linejoin="round" class="highcharts-point highcharts-color-7" tabindex="-1" role="img" aria-label="8. QQ, 1.2%." style="outline: 0px;"></path><path fill="#DF5353" d="M 277.7617597248342 43.41436837093656 A 142 142 0 0 1 300.80276484879386 41.50013697790013 L 301 183.5 A 0 0 0 0 0 301 183.5 Z" transform="translate(0,0)" stroke="#ffffff" stroke-width="1" opacity="1" stroke-linejoin="round" class="highcharts-point highcharts-color-8" tabindex="-1" role="img" aria-label="9. Other, 2.61%." style="outline: 0px;"></path></g><g class="highcharts-markers highcharts-series-0 highcharts-pie-series" data-z-index="0.1" opacity="1" transform="translate(10,45) scale(1 1)" aria-hidden="true"></g></g><text x="300" text-anchor="middle" class="highcharts-title" data-z-index="4" style="color:black;font-size:16px;font-weight:bold;fill:black;" y="22" aria-hidden="true">Browser market shares in January, 2018</text><text x="300" text-anchor="middle" class="highcharts-subtitle" data-z-index="4" style="color:black;fill:black;" y="44" aria-hidden="true"></text><text x="10" text-anchor="start" class="highcharts-caption" data-z-index="4" style="color:#666666;fill:#666666;" y="397" aria-hidden="true"></text><g class="highcharts-data-labels highcharts-series-0 highcharts-pie-series" data-z-index="6" opacity="1" transform="translate(10,45) scale(1 1)" aria-hidden="true"><path fill="none" class="highcharts-data-label-connector highcharts-color-0" stroke="#f45b5b" stroke-width="1" d="M 467.0676313117201 243.84250693857356 C 462.0676313117201 243.84250693857356 445.21171640700527 237.52759342174608 439.5930781054336 235.42262224947027 L 433.97443980386197 233.31765107719445"></path><path fill="none" class="highcharts-data-label-connector highcharts-color-1" stroke="#8085e9" stroke-width="1" d="M 143.58967730429447 263.2188405321534 C 148.58967730429447 263.2188405321534 164.53959479570554 254.8761711741374 169.8562339595092 252.09528138813204 L 175.17287312331288 249.31439160212668"></path><path fill="none" class="highcharts-data-label-connector highcharts-color-2" stroke="#8d4654" stroke-width="1" d="M 126.69773528999235 153.15625 C 131.69773528999235 153.15625 151.0872824012732 148.25546705991994 156.92803763239243 149.628630680962 L 162.76879286351166 151.00179430200407"></path><path fill="none" class="highcharts-data-label-connector highcharts-color-3" stroke="#7798BF" stroke-width="1" d="M 132.68110855527345 129.546875 C 137.68110855527345 129.546875 185.06792980912883 82.1306007650291 189.58476371266926 86.08005787807991 L 194.1015976162097 90.02951499113072"></path><path fill="none" class="highcharts-data-label-connector highcharts-color-4" stroke="#aaeeee" stroke-width="1" d="M 142.48108066511801 105.9375 C 147.48108066511801 105.9375 217.342107966693 54.204380969254984 220.60150635760107 59.24187261980349 L 223.86090474850914 64.27936427035199"></path><path fill="none" class="highcharts-data-label-connector highcharts-color-5" stroke="#ff0066" stroke-width="1" d="M 156.9020068118006 82.328125 C 161.9020068118006 82.328125 242.24558901471408 41.14860664618658 244.5347219102447 46.69476482880269 L 246.82385480577534 52.2409230114188"></path><path fill="none" class="highcharts-data-label-connector highcharts-color-6" stroke="#eeaaee" stroke-width="1" d="M 177.62078033524 58.71875 C 182.62078033524 58.71875 257.0142946715214 35.91525239118968 258.728023450553 41.665307492831644 L 260.4417522295846 47.415362594473606"></path><path fill="none" class="highcharts-data-label-connector highcharts-color-7" stroke="#55BF3B" stroke-width="1" d="M 209.02746173584808 35.109375 C 214.02746173584808 35.109375 270.1498572705078 32.621675865716355 271.3518108833452 38.500052130688445 L 272.55376449618257 44.378428395660535"></path><path fill="none" class="highcharts-data-label-connector highcharts-color-8" stroke="#DF5353" stroke-width="1" d="M 281.9125602679418 11.5 C 286.9125602679418 11.5 288.38682721664566 30.01740205372711 288.87824953288026 35.99724353215333 L 289.36967184911487 41.97708501057954"></path><g class="highcharts-label highcharts-data-label highcharts-data-label-color-0" data-z-index="1" style="cursor:pointer;" transform="translate(472,234)"><text x="5" data-z-index="1" y="16" style="color:#000000;font-size:11px;font-weight:bold;fill:#000000;"><tspan class="highcharts-text-outline" fill="#FFFFFF" stroke="#FFFFFF" stroke-width="2px" stroke-linejoin="round" style=""><tspan style="font-weight:bold;">Chrome</tspan>: 61.4 %<tspan x="5" y="16">​</tspan></tspan><tspan style="font-weight:bold;">Chrome</tspan>: 61.4 %</text></g><g class="highcharts-label highcharts-data-label highcharts-data-label-color-1" data-z-index="1" style="cursor:pointer;" transform="translate(6,253)"><text x="5" data-z-index="1" y="16" style="color:#000000;font-size:11px;font-weight:bold;fill:#000000;"><tspan class="highcharts-text-outline" fill="#FFFFFF" stroke="#FFFFFF" stroke-width="2px" stroke-linejoin="round" style=""><tspan style="font-weight:bold;">Internet Explorer</tspan>: 11.8 %<tspan x="5" y="16">​</tspan></tspan><tspan style="font-weight:bold;">Internet Explorer</tspan>: 11.8 %</text></g><g class="highcharts-label highcharts-data-label highcharts-data-label-color-2" data-z-index="1" style="cursor:pointer;" transform="translate(38,143)"><text x="5" data-z-index="1" y="16" style="color:#000000;font-size:11px;font-weight:bold;fill:#000000;"><tspan class="highcharts-text-outline" fill="#FFFFFF" stroke="#FFFFFF" stroke-width="2px" stroke-linejoin="round" style=""><tspan style="font-weight:bold;">Firefox</tspan>: 10.9 %<tspan x="5" y="16">​</tspan></tspan><tspan style="font-weight:bold;">Firefox</tspan>: 10.9 %</text></g><g class="highcharts-label highcharts-data-label highcharts-data-label-color-3" data-z-index="1" style="cursor:pointer;" transform="translate(60,120)"><text x="5" data-z-index="1" y="16" style="color:#000000;font-size:11px;font-weight:bold;fill:#000000;"><tspan class="highcharts-text-outline" fill="#FFFFFF" stroke="#FFFFFF" stroke-width="2px" stroke-linejoin="round" style=""><tspan style="font-weight:bold;">Edge</tspan>: 4.7 %<tspan x="5" y="16">​</tspan></tspan><tspan style="font-weight:bold;">Edge</tspan>: 4.7 %</text></g><g class="highcharts-label highcharts-data-label highcharts-data-label-color-4" data-z-index="1" style="cursor:pointer;" transform="translate(63,96)"><text x="5" data-z-index="1" y="16" style="color:#000000;font-size:11px;font-weight:bold;fill:#000000;"><tspan class="highcharts-text-outline" fill="#FFFFFF" stroke="#FFFFFF" stroke-width="2px" stroke-linejoin="round" style=""><tspan style="font-weight:bold;">Safari</tspan>: 4.2 %<tspan x="5" y="16">​</tspan></tspan><tspan style="font-weight:bold;">Safari</tspan>: 4.2 %</text></g><g class="highcharts-label highcharts-data-label highcharts-data-label-color-5" data-z-index="1" style="cursor:pointer;" transform="translate(34,72)"><text x="5" data-z-index="1" y="16" style="color:#000000;font-size:11px;font-weight:bold;fill:#000000;"><tspan class="highcharts-text-outline" fill="#FFFFFF" stroke="#FFFFFF" stroke-width="2px" stroke-linejoin="round" style=""><tspan style="font-weight:bold;">Sogou Explorer</tspan>: 1.6 %<tspan x="5" y="16">​</tspan></tspan><tspan style="font-weight:bold;">Sogou Explorer</tspan>: 1.6 %</text></g><g class="highcharts-label highcharts-data-label highcharts-data-label-color-6" data-z-index="1" style="cursor:pointer;" transform="translate(100,49)"><text x="5" data-z-index="1" y="16" style="color:#000000;font-size:11px;font-weight:bold;fill:#000000;"><tspan class="highcharts-text-outline" fill="#FFFFFF" stroke="#FFFFFF" stroke-width="2px" stroke-linejoin="round" style=""><tspan style="font-weight:bold;">Opera</tspan>: 1.6 %<tspan x="5" y="16">​</tspan></tspan><tspan style="font-weight:bold;">Opera</tspan>: 1.6 %</text></g><g class="highcharts-label highcharts-data-label highcharts-data-label-color-7" data-z-index="1" style="cursor:pointer;" transform="translate(145,25)"><text x="5" data-z-index="1" y="16" style="color:#000000;font-size:11px;font-weight:bold;fill:#000000;"><tspan class="highcharts-text-outline" fill="#FFFFFF" stroke="#FFFFFF" stroke-width="2px" stroke-linejoin="round" style=""><tspan style="font-weight:bold;">QQ</tspan>: 1.2 %<tspan x="5" y="16">​</tspan></tspan><tspan style="font-weight:bold;">QQ</tspan>: 1.2 %</text></g><g class="highcharts-label highcharts-data-label highcharts-data-label-color-8" data-z-index="1" style="cursor:pointer;" transform="translate(205,2)"><text x="5" data-z-index="1" y="16" style="color:#000000;font-size:11px;font-weight:bold;fill:#000000;"><tspan class="highcharts-text-outline" fill="#FFFFFF" stroke="#FFFFFF" stroke-width="2px" stroke-linejoin="round" style=""><tspan style="font-weight:bold;">Other</tspan>: 2.6 %<tspan x="5" y="16">​</tspan></tspan><tspan style="font-weight:bold;">Other</tspan>: 2.6 %</text></g></g><g class="highcharts-legend highcharts-no-tooltip" data-z-index="7" aria-hidden="true"><rect fill="#E0E0E8" class="highcharts-legend-box" rx="0" ry="0" x="0" y="0" width="8" height="8" visibility="hidden"></rect><g data-z-index="1"><g></g></g></g><text x="590" class="highcharts-credits" text-anchor="end" data-z-index="8" style="cursor:pointer;color:#999999;font-size:9px;fill:#999999;" y="395" aria-label="Chart credits: Highcharts.com" aria-hidden="false">Highcharts.com</text></svg>